# xmcd CD database file
#
# Track frame offsets:
#	187
#	39652
#	78452
#	109000
#
# Disc length: 2021 seconds
#
# Revision: 0
# Processed by: cddbd v1.4PL0 Copyright (c) Steve Scherf et al.
# Submitted via: CDex 1.50beta10
#
DISCID=2907e304
DTITLE=Joe Farrell - Outback
DYEAR=1971
DGENRE=Jazz
TTITLE0=Outback
TTITLE1=Sound down
TTITLE2=Bleeding orchid
TTITLE3=November 68th
EXTD=YEAR: 1971
EXTT0=
EXTT1=
EXTT2=
EXTT3=
PLAYORDER=
